<mxfile host="app.diagrams.net" agent="Mozilla/5.0 (Windows NT 10.0; Win64; x64) AppleWebKit/537.36 (KHTML, like Gecko) Chrome/129.0.0.0 Safari/537.36" version="24.7.17">
  <diagram name="Страница — 1" id="_E4CSrzuuN3LOU5gBDM8">
    <mxGraphModel dx="1290" dy="530" grid="0" gridSize="10" guides="1" tooltips="1" connect="1" arrows="1" fold="1" page="0" pageScale="1" pageWidth="827" pageHeight="1169" math="0" shadow="0">
      <root>
        <mxCell id="0" />
        <mxCell id="1" parent="0" />
        <mxCell id="1cdvJiRdMnJijtPopo0H-1" value="" style="rounded=0;whiteSpace=wrap;html=1;" parent="1" vertex="1">
          <mxGeometry x="120" y="195" width="60" height="30" as="geometry" />
        </mxCell>
        <mxCell id="1cdvJiRdMnJijtPopo0H-2" value="" style="endArrow=none;html=1;rounded=0;entryX=0.5;entryY=0;entryDx=0;entryDy=0;exitX=0.5;exitY=1;exitDx=0;exitDy=0;" parent="1" source="1cdvJiRdMnJijtPopo0H-1" target="1cdvJiRdMnJijtPopo0H-1" edge="1">
          <mxGeometry width="50" height="50" relative="1" as="geometry">
            <mxPoint x="160" y="245" as="sourcePoint" />
            <mxPoint x="210" y="195" as="targetPoint" />
          </mxGeometry>
        </mxCell>
        <mxCell id="1cdvJiRdMnJijtPopo0H-3" value="&amp;amp;" style="text;html=1;align=center;verticalAlign=middle;whiteSpace=wrap;rounded=0;" parent="1" vertex="1">
          <mxGeometry x="150" y="195" width="30" height="30" as="geometry" />
        </mxCell>
        <mxCell id="1cdvJiRdMnJijtPopo0H-4" value="" style="endArrow=classic;html=1;rounded=0;entryX=0;entryY=0.5;entryDx=0;entryDy=0;sourcePerimeterSpacing=0;" parent="1" target="1cdvJiRdMnJijtPopo0H-1" edge="1">
          <mxGeometry width="50" height="50" relative="1" as="geometry">
            <mxPoint x="90" y="210" as="sourcePoint" />
            <mxPoint x="410" y="245" as="targetPoint" />
          </mxGeometry>
        </mxCell>
        <mxCell id="1cdvJiRdMnJijtPopo0H-5" value="" style="rounded=0;whiteSpace=wrap;html=1;strokeColor=default;" parent="1" vertex="1">
          <mxGeometry x="250" y="70" width="120" height="60" as="geometry" />
        </mxCell>
        <mxCell id="1cdvJiRdMnJijtPopo0H-10" value="" style="rounded=0;whiteSpace=wrap;html=1;" parent="1" vertex="1">
          <mxGeometry x="250" y="120" width="120" height="10" as="geometry" />
        </mxCell>
        <mxCell id="1cdvJiRdMnJijtPopo0H-11" value="" style="endArrow=none;html=1;rounded=0;entryX=0.5;entryY=0;entryDx=0;entryDy=0;exitX=0.5;exitY=1;exitDx=0;exitDy=0;" parent="1" source="1cdvJiRdMnJijtPopo0H-10" target="1cdvJiRdMnJijtPopo0H-10" edge="1">
          <mxGeometry width="50" height="50" relative="1" as="geometry">
            <mxPoint x="170" y="220" as="sourcePoint" />
            <mxPoint x="220" y="170" as="targetPoint" />
          </mxGeometry>
        </mxCell>
        <mxCell id="1cdvJiRdMnJijtPopo0H-16" value="" style="rounded=0;whiteSpace=wrap;html=1;strokeColor=default;" parent="1" vertex="1">
          <mxGeometry x="93" y="485" width="120" height="60" as="geometry" />
        </mxCell>
        <mxCell id="1cdvJiRdMnJijtPopo0H-17" value="" style="rounded=0;whiteSpace=wrap;html=1;" parent="1" vertex="1">
          <mxGeometry x="93" y="535" width="120" height="10" as="geometry" />
        </mxCell>
        <mxCell id="1cdvJiRdMnJijtPopo0H-18" value="" style="endArrow=none;html=1;rounded=0;entryX=0.5;entryY=0;entryDx=0;entryDy=0;exitX=0.5;exitY=1;exitDx=0;exitDy=0;" parent="1" source="1cdvJiRdMnJijtPopo0H-17" target="1cdvJiRdMnJijtPopo0H-17" edge="1">
          <mxGeometry width="50" height="50" relative="1" as="geometry">
            <mxPoint x="13" y="635" as="sourcePoint" />
            <mxPoint x="63" y="585" as="targetPoint" />
          </mxGeometry>
        </mxCell>
        <mxCell id="1cdvJiRdMnJijtPopo0H-19" value="" style="rounded=0;whiteSpace=wrap;html=1;strokeColor=default;" parent="1" vertex="1">
          <mxGeometry x="250" y="177.5" width="120" height="60" as="geometry" />
        </mxCell>
        <mxCell id="1cdvJiRdMnJijtPopo0H-20" value="" style="rounded=0;whiteSpace=wrap;html=1;" parent="1" vertex="1">
          <mxGeometry x="250" y="227.5" width="120" height="10" as="geometry" />
        </mxCell>
        <mxCell id="1cdvJiRdMnJijtPopo0H-21" value="" style="endArrow=none;html=1;rounded=0;entryX=0.5;entryY=0;entryDx=0;entryDy=0;exitX=0.5;exitY=1;exitDx=0;exitDy=0;" parent="1" source="1cdvJiRdMnJijtPopo0H-20" target="1cdvJiRdMnJijtPopo0H-20" edge="1">
          <mxGeometry width="50" height="50" relative="1" as="geometry">
            <mxPoint x="170" y="327.5" as="sourcePoint" />
            <mxPoint x="220" y="277.5" as="targetPoint" />
          </mxGeometry>
        </mxCell>
        <mxCell id="1cdvJiRdMnJijtPopo0H-22" value="" style="rounded=0;whiteSpace=wrap;html=1;strokeColor=default;" parent="1" vertex="1">
          <mxGeometry x="250" y="280" width="120" height="60" as="geometry" />
        </mxCell>
        <mxCell id="1cdvJiRdMnJijtPopo0H-23" value="" style="rounded=0;whiteSpace=wrap;html=1;" parent="1" vertex="1">
          <mxGeometry x="250" y="330" width="120" height="10" as="geometry" />
        </mxCell>
        <mxCell id="1cdvJiRdMnJijtPopo0H-24" value="" style="endArrow=none;html=1;rounded=0;entryX=0.5;entryY=0;entryDx=0;entryDy=0;exitX=0.5;exitY=1;exitDx=0;exitDy=0;" parent="1" source="1cdvJiRdMnJijtPopo0H-23" target="1cdvJiRdMnJijtPopo0H-23" edge="1">
          <mxGeometry width="50" height="50" relative="1" as="geometry">
            <mxPoint x="170" y="430" as="sourcePoint" />
            <mxPoint x="220" y="380" as="targetPoint" />
          </mxGeometry>
        </mxCell>
        <mxCell id="1cdvJiRdMnJijtPopo0H-29" value="A0.1.3" style="text;html=1;align=center;verticalAlign=middle;whiteSpace=wrap;rounded=0;fontSize=9;" parent="1" vertex="1">
          <mxGeometry x="250" y="325" width="50" height="20" as="geometry" />
        </mxCell>
        <mxCell id="1cdvJiRdMnJijtPopo0H-31" value="A0.1.2" style="text;html=1;align=center;verticalAlign=middle;whiteSpace=wrap;rounded=0;fontSize=9;" parent="1" vertex="1">
          <mxGeometry x="250" y="222.5" width="50" height="20" as="geometry" />
        </mxCell>
        <mxCell id="1cdvJiRdMnJijtPopo0H-32" value="A0.1.1" style="text;html=1;align=center;verticalAlign=middle;whiteSpace=wrap;rounded=0;fontSize=9;" parent="1" vertex="1">
          <mxGeometry x="250" y="115" width="50" height="20" as="geometry" />
        </mxCell>
        <mxCell id="1cdvJiRdMnJijtPopo0H-33" value="A0.2.1" style="text;html=1;align=center;verticalAlign=middle;whiteSpace=wrap;rounded=0;fontSize=9;" parent="1" vertex="1">
          <mxGeometry x="93" y="530" width="50" height="20" as="geometry" />
        </mxCell>
        <mxCell id="1cdvJiRdMnJijtPopo0H-34" value="&lt;font style=&quot;font-size: 11px;&quot;&gt;Заполнение поле &quot;Тип сдаваемых отходов&quot;&lt;/font&gt;" style="text;html=1;align=center;verticalAlign=middle;whiteSpace=wrap;rounded=0;" parent="1" vertex="1">
          <mxGeometry x="250" y="80" width="120" height="30" as="geometry" />
        </mxCell>
        <mxCell id="1cdvJiRdMnJijtPopo0H-35" value="&lt;font style=&quot;font-size: 11px;&quot;&gt;Заполнение поле &quot;Фото чека&quot;&lt;/font&gt;" style="text;html=1;align=center;verticalAlign=middle;whiteSpace=wrap;rounded=0;" parent="1" vertex="1">
          <mxGeometry x="250" y="290" width="120" height="30" as="geometry" />
        </mxCell>
        <mxCell id="1cdvJiRdMnJijtPopo0H-36" value="&lt;font style=&quot;font-size: 11px;&quot;&gt;Заполнение поле &quot;Количество сданных отходов в кг&quot;&lt;/font&gt;" style="text;html=1;align=center;verticalAlign=middle;whiteSpace=wrap;rounded=0;" parent="1" vertex="1">
          <mxGeometry x="250" y="187.5" width="120" height="30" as="geometry" />
        </mxCell>
        <mxCell id="1cdvJiRdMnJijtPopo0H-37" value="" style="rounded=0;whiteSpace=wrap;html=1;" parent="1" vertex="1">
          <mxGeometry x="470" y="195" width="60" height="30" as="geometry" />
        </mxCell>
        <mxCell id="1cdvJiRdMnJijtPopo0H-38" value="" style="endArrow=none;html=1;rounded=0;entryX=0.5;entryY=0;entryDx=0;entryDy=0;exitX=0.5;exitY=1;exitDx=0;exitDy=0;" parent="1" source="1cdvJiRdMnJijtPopo0H-37" target="1cdvJiRdMnJijtPopo0H-37" edge="1">
          <mxGeometry width="50" height="50" relative="1" as="geometry">
            <mxPoint x="510" y="245" as="sourcePoint" />
            <mxPoint x="560" y="195" as="targetPoint" />
          </mxGeometry>
        </mxCell>
        <mxCell id="1cdvJiRdMnJijtPopo0H-39" value="&amp;amp;" style="text;html=1;align=center;verticalAlign=middle;whiteSpace=wrap;rounded=0;" parent="1" vertex="1">
          <mxGeometry x="500" y="195" width="30" height="30" as="geometry" />
        </mxCell>
        <mxCell id="1cdvJiRdMnJijtPopo0H-40" value="" style="endArrow=classic;html=1;rounded=0;entryX=0;entryY=0.5;entryDx=0;entryDy=0;exitX=1;exitY=0.75;exitDx=0;exitDy=0;" parent="1" source="1cdvJiRdMnJijtPopo0H-36" target="1cdvJiRdMnJijtPopo0H-37" edge="1">
          <mxGeometry width="50" height="50" relative="1" as="geometry">
            <mxPoint x="440" y="210" as="sourcePoint" />
            <mxPoint x="760" y="245" as="targetPoint" />
          </mxGeometry>
        </mxCell>
        <mxCell id="1cdvJiRdMnJijtPopo0H-41" value="" style="rounded=0;whiteSpace=wrap;html=1;strokeColor=default;" parent="1" vertex="1">
          <mxGeometry x="580" y="177.5" width="120" height="60" as="geometry" />
        </mxCell>
        <mxCell id="1cdvJiRdMnJijtPopo0H-42" value="" style="rounded=0;whiteSpace=wrap;html=1;" parent="1" vertex="1">
          <mxGeometry x="580" y="227.5" width="120" height="10" as="geometry" />
        </mxCell>
        <mxCell id="1cdvJiRdMnJijtPopo0H-43" value="" style="endArrow=none;html=1;rounded=0;entryX=0.5;entryY=0;entryDx=0;entryDy=0;exitX=0.5;exitY=1;exitDx=0;exitDy=0;" parent="1" source="1cdvJiRdMnJijtPopo0H-42" target="1cdvJiRdMnJijtPopo0H-42" edge="1">
          <mxGeometry width="50" height="50" relative="1" as="geometry">
            <mxPoint x="500" y="327.5" as="sourcePoint" />
            <mxPoint x="550" y="277.5" as="targetPoint" />
          </mxGeometry>
        </mxCell>
        <mxCell id="1cdvJiRdMnJijtPopo0H-44" value="A0.1.4" style="text;html=1;align=center;verticalAlign=middle;whiteSpace=wrap;rounded=0;fontSize=9;" parent="1" vertex="1">
          <mxGeometry x="580" y="222.5" width="50" height="20" as="geometry" />
        </mxCell>
        <mxCell id="1cdvJiRdMnJijtPopo0H-45" value="&lt;font style=&quot;font-size: 11px;&quot;&gt;Проверка введенных данных&lt;/font&gt;" style="text;html=1;align=center;verticalAlign=middle;whiteSpace=wrap;rounded=0;" parent="1" vertex="1">
          <mxGeometry x="580" y="187.5" width="120" height="30" as="geometry" />
        </mxCell>
        <mxCell id="1cdvJiRdMnJijtPopo0H-46" value="&lt;font style=&quot;font-size: 11px;&quot;&gt;J1&lt;/font&gt;" style="text;html=1;align=center;verticalAlign=middle;whiteSpace=wrap;rounded=0;" parent="1" vertex="1">
          <mxGeometry x="120" y="225" width="60" height="30" as="geometry" />
        </mxCell>
        <mxCell id="1cdvJiRdMnJijtPopo0H-47" value="&lt;font style=&quot;font-size: 11px;&quot;&gt;J2&lt;/font&gt;" style="text;html=1;align=center;verticalAlign=middle;whiteSpace=wrap;rounded=0;" parent="1" vertex="1">
          <mxGeometry x="470" y="225" width="60" height="30" as="geometry" />
        </mxCell>
        <mxCell id="1cdvJiRdMnJijtPopo0H-48" value="" style="rounded=0;whiteSpace=wrap;html=1;" parent="1" vertex="1">
          <mxGeometry x="767" y="195" width="60" height="30" as="geometry" />
        </mxCell>
        <mxCell id="1cdvJiRdMnJijtPopo0H-49" value="" style="endArrow=none;html=1;rounded=0;entryX=0.5;entryY=0;entryDx=0;entryDy=0;exitX=0.5;exitY=1;exitDx=0;exitDy=0;" parent="1" source="1cdvJiRdMnJijtPopo0H-48" target="1cdvJiRdMnJijtPopo0H-48" edge="1">
          <mxGeometry width="50" height="50" relative="1" as="geometry">
            <mxPoint x="807" y="245" as="sourcePoint" />
            <mxPoint x="857" y="195" as="targetPoint" />
          </mxGeometry>
        </mxCell>
        <mxCell id="1cdvJiRdMnJijtPopo0H-50" value="X" style="text;html=1;align=center;verticalAlign=middle;whiteSpace=wrap;rounded=0;" parent="1" vertex="1">
          <mxGeometry x="797" y="195" width="30" height="30" as="geometry" />
        </mxCell>
        <mxCell id="1cdvJiRdMnJijtPopo0H-51" value="" style="endArrow=classic;html=1;rounded=0;entryX=0;entryY=0.5;entryDx=0;entryDy=0;exitX=1;exitY=0.75;exitDx=0;exitDy=0;" parent="1" source="1cdvJiRdMnJijtPopo0H-45" target="1cdvJiRdMnJijtPopo0H-48" edge="1">
          <mxGeometry width="50" height="50" relative="1" as="geometry">
            <mxPoint x="737" y="210" as="sourcePoint" />
            <mxPoint x="1057" y="245" as="targetPoint" />
          </mxGeometry>
        </mxCell>
        <mxCell id="1cdvJiRdMnJijtPopo0H-52" value="&lt;font style=&quot;font-size: 11px;&quot;&gt;J3&lt;/font&gt;" style="text;html=1;align=center;verticalAlign=middle;whiteSpace=wrap;rounded=0;" parent="1" vertex="1">
          <mxGeometry x="767" y="225" width="60" height="30" as="geometry" />
        </mxCell>
        <mxCell id="1cdvJiRdMnJijtPopo0H-53" value="Данные соответствуют правилам валидации" style="text;html=1;align=center;verticalAlign=middle;whiteSpace=wrap;rounded=0;fontSize=11;" parent="1" vertex="1">
          <mxGeometry x="782" y="110" width="60" height="30" as="geometry" />
        </mxCell>
        <mxCell id="1cdvJiRdMnJijtPopo0H-54" value="Данные не соответствуют правилам валидации" style="text;html=1;align=center;verticalAlign=middle;whiteSpace=wrap;rounded=0;fontSize=11;" parent="1" vertex="1">
          <mxGeometry x="782" y="280" width="60" height="30" as="geometry" />
        </mxCell>
        <mxCell id="1cdvJiRdMnJijtPopo0H-55" value="" style="rounded=0;whiteSpace=wrap;html=1;strokeColor=default;" parent="1" vertex="1">
          <mxGeometry x="890" y="80" width="120" height="60" as="geometry" />
        </mxCell>
        <mxCell id="1cdvJiRdMnJijtPopo0H-56" value="" style="rounded=0;whiteSpace=wrap;html=1;" parent="1" vertex="1">
          <mxGeometry x="890" y="130" width="120" height="10" as="geometry" />
        </mxCell>
        <mxCell id="1cdvJiRdMnJijtPopo0H-57" value="" style="endArrow=none;html=1;rounded=0;entryX=0.5;entryY=0;entryDx=0;entryDy=0;exitX=0.5;exitY=1;exitDx=0;exitDy=0;" parent="1" source="1cdvJiRdMnJijtPopo0H-56" target="1cdvJiRdMnJijtPopo0H-56" edge="1">
          <mxGeometry width="50" height="50" relative="1" as="geometry">
            <mxPoint x="810" y="230" as="sourcePoint" />
            <mxPoint x="860" y="180" as="targetPoint" />
          </mxGeometry>
        </mxCell>
        <mxCell id="1cdvJiRdMnJijtPopo0H-58" value="A0.1.5" style="text;html=1;align=center;verticalAlign=middle;whiteSpace=wrap;rounded=0;fontSize=9;" parent="1" vertex="1">
          <mxGeometry x="890" y="125" width="50" height="20" as="geometry" />
        </mxCell>
        <mxCell id="1cdvJiRdMnJijtPopo0H-59" value="&lt;font style=&quot;font-size: 11px;&quot;&gt;Данные прошли валидацию&lt;/font&gt;" style="text;html=1;align=center;verticalAlign=middle;whiteSpace=wrap;rounded=0;" parent="1" vertex="1">
          <mxGeometry x="890" y="90" width="120" height="30" as="geometry" />
        </mxCell>
        <mxCell id="1cdvJiRdMnJijtPopo0H-60" value="" style="rounded=0;whiteSpace=wrap;html=1;strokeColor=default;" parent="1" vertex="1">
          <mxGeometry x="890" y="290" width="120" height="60" as="geometry" />
        </mxCell>
        <mxCell id="1cdvJiRdMnJijtPopo0H-61" value="" style="rounded=0;whiteSpace=wrap;html=1;" parent="1" vertex="1">
          <mxGeometry x="890" y="340" width="120" height="10" as="geometry" />
        </mxCell>
        <mxCell id="1cdvJiRdMnJijtPopo0H-62" value="" style="endArrow=none;html=1;rounded=0;entryX=0.5;entryY=0;entryDx=0;entryDy=0;exitX=0.5;exitY=1;exitDx=0;exitDy=0;" parent="1" source="1cdvJiRdMnJijtPopo0H-61" target="1cdvJiRdMnJijtPopo0H-61" edge="1">
          <mxGeometry width="50" height="50" relative="1" as="geometry">
            <mxPoint x="810" y="440" as="sourcePoint" />
            <mxPoint x="860" y="390" as="targetPoint" />
          </mxGeometry>
        </mxCell>
        <mxCell id="1cdvJiRdMnJijtPopo0H-63" value="A0.1.6" style="text;html=1;align=center;verticalAlign=middle;whiteSpace=wrap;rounded=0;fontSize=9;" parent="1" vertex="1">
          <mxGeometry x="890" y="335" width="50" height="20" as="geometry" />
        </mxCell>
        <mxCell id="1cdvJiRdMnJijtPopo0H-64" value="&lt;font style=&quot;font-size: 11px;&quot;&gt;Данные не прошли валидацию&lt;/font&gt;" style="text;html=1;align=center;verticalAlign=middle;whiteSpace=wrap;rounded=0;" parent="1" vertex="1">
          <mxGeometry x="890" y="300" width="120" height="30" as="geometry" />
        </mxCell>
        <mxCell id="1cdvJiRdMnJijtPopo0H-65" value="" style="rounded=0;whiteSpace=wrap;html=1;" parent="1" vertex="1">
          <mxGeometry x="1120" y="195" width="60" height="30" as="geometry" />
        </mxCell>
        <mxCell id="1cdvJiRdMnJijtPopo0H-66" value="" style="endArrow=none;html=1;rounded=0;entryX=0.5;entryY=0;entryDx=0;entryDy=0;exitX=0.5;exitY=1;exitDx=0;exitDy=0;" parent="1" source="1cdvJiRdMnJijtPopo0H-65" target="1cdvJiRdMnJijtPopo0H-65" edge="1">
          <mxGeometry width="50" height="50" relative="1" as="geometry">
            <mxPoint x="1160" y="245" as="sourcePoint" />
            <mxPoint x="1210" y="195" as="targetPoint" />
          </mxGeometry>
        </mxCell>
        <mxCell id="1cdvJiRdMnJijtPopo0H-67" value="X" style="text;html=1;align=center;verticalAlign=middle;whiteSpace=wrap;rounded=0;" parent="1" vertex="1">
          <mxGeometry x="1150" y="195" width="30" height="30" as="geometry" />
        </mxCell>
        <mxCell id="1cdvJiRdMnJijtPopo0H-68" value="" style="endArrow=classic;html=1;rounded=0;entryX=0;entryY=0.5;entryDx=0;entryDy=0;" parent="1" target="1cdvJiRdMnJijtPopo0H-65" edge="1">
          <mxGeometry width="50" height="50" relative="1" as="geometry">
            <mxPoint x="1090" y="210" as="sourcePoint" />
            <mxPoint x="1410" y="245" as="targetPoint" />
          </mxGeometry>
        </mxCell>
        <mxCell id="1cdvJiRdMnJijtPopo0H-69" value="&lt;font style=&quot;font-size: 11px;&quot;&gt;J4&lt;/font&gt;" style="text;html=1;align=center;verticalAlign=middle;whiteSpace=wrap;rounded=0;" parent="1" vertex="1">
          <mxGeometry x="1120" y="225" width="60" height="30" as="geometry" />
        </mxCell>
        <mxCell id="1cdvJiRdMnJijtPopo0H-70" value="" style="rounded=0;whiteSpace=wrap;html=1;strokeColor=default;" parent="1" vertex="1">
          <mxGeometry x="1226" y="185" width="120" height="60" as="geometry" />
        </mxCell>
        <mxCell id="1cdvJiRdMnJijtPopo0H-71" value="" style="rounded=0;whiteSpace=wrap;html=1;" parent="1" vertex="1">
          <mxGeometry x="1226" y="235" width="120" height="10" as="geometry" />
        </mxCell>
        <mxCell id="1cdvJiRdMnJijtPopo0H-72" value="" style="endArrow=none;html=1;rounded=0;entryX=0.5;entryY=0;entryDx=0;entryDy=0;exitX=0.5;exitY=1;exitDx=0;exitDy=0;" parent="1" source="1cdvJiRdMnJijtPopo0H-71" target="1cdvJiRdMnJijtPopo0H-71" edge="1">
          <mxGeometry width="50" height="50" relative="1" as="geometry">
            <mxPoint x="1146" y="335" as="sourcePoint" />
            <mxPoint x="1196" y="285" as="targetPoint" />
          </mxGeometry>
        </mxCell>
        <mxCell id="1cdvJiRdMnJijtPopo0H-73" value="A0.1.7" style="text;html=1;align=center;verticalAlign=middle;whiteSpace=wrap;rounded=0;fontSize=9;" parent="1" vertex="1">
          <mxGeometry x="1226" y="230" width="50" height="20" as="geometry" />
        </mxCell>
        <mxCell id="1cdvJiRdMnJijtPopo0H-74" value="&lt;font style=&quot;font-size: 11px;&quot;&gt;Завершение процесса заполнения формы&lt;/font&gt;" style="text;html=1;align=center;verticalAlign=middle;whiteSpace=wrap;rounded=0;" parent="1" vertex="1">
          <mxGeometry x="1226" y="195" width="120" height="30" as="geometry" />
        </mxCell>
        <mxCell id="1cdvJiRdMnJijtPopo0H-76" value="" style="endArrow=classic;html=1;rounded=0;entryX=0;entryY=0.75;entryDx=0;entryDy=0;exitX=1;exitY=0.5;exitDx=0;exitDy=0;" parent="1" source="1cdvJiRdMnJijtPopo0H-3" target="1cdvJiRdMnJijtPopo0H-36" edge="1">
          <mxGeometry width="50" height="50" relative="1" as="geometry">
            <mxPoint x="90" y="355" as="sourcePoint" />
            <mxPoint x="140" y="305" as="targetPoint" />
          </mxGeometry>
        </mxCell>
        <mxCell id="1cdvJiRdMnJijtPopo0H-77" value="" style="endArrow=classic;html=1;rounded=0;exitX=1;exitY=0.5;exitDx=0;exitDy=0;entryX=0;entryY=0.75;entryDx=0;entryDy=0;" parent="1" source="1cdvJiRdMnJijtPopo0H-3" target="1cdvJiRdMnJijtPopo0H-34" edge="1">
          <mxGeometry width="50" height="50" relative="1" as="geometry">
            <mxPoint x="260" y="290" as="sourcePoint" />
            <mxPoint x="310" y="240" as="targetPoint" />
            <Array as="points">
              <mxPoint x="200" y="210" />
              <mxPoint x="200" y="103" />
            </Array>
          </mxGeometry>
        </mxCell>
        <mxCell id="1cdvJiRdMnJijtPopo0H-78" value="" style="endArrow=classic;html=1;rounded=0;entryX=0;entryY=0.75;entryDx=0;entryDy=0;" parent="1" target="1cdvJiRdMnJijtPopo0H-35" edge="1">
          <mxGeometry width="50" height="50" relative="1" as="geometry">
            <mxPoint x="200" y="210" as="sourcePoint" />
            <mxPoint x="170" y="340" as="targetPoint" />
            <Array as="points">
              <mxPoint x="200" y="260" />
              <mxPoint x="200" y="313" />
            </Array>
          </mxGeometry>
        </mxCell>
        <mxCell id="1cdvJiRdMnJijtPopo0H-79" value="" style="endArrow=none;html=1;rounded=0;exitX=1;exitY=0.75;exitDx=0;exitDy=0;" parent="1" source="1cdvJiRdMnJijtPopo0H-35" edge="1">
          <mxGeometry width="50" height="50" relative="1" as="geometry">
            <mxPoint x="440" y="350" as="sourcePoint" />
            <mxPoint x="420" y="210" as="targetPoint" />
            <Array as="points">
              <mxPoint x="420" y="313" />
            </Array>
          </mxGeometry>
        </mxCell>
        <mxCell id="1cdvJiRdMnJijtPopo0H-81" value="" style="endArrow=none;html=1;rounded=0;entryX=1;entryY=0.75;entryDx=0;entryDy=0;" parent="1" target="1cdvJiRdMnJijtPopo0H-34" edge="1">
          <mxGeometry width="50" height="50" relative="1" as="geometry">
            <mxPoint x="420" y="210" as="sourcePoint" />
            <mxPoint x="490" y="110" as="targetPoint" />
            <Array as="points">
              <mxPoint x="420" y="103" />
            </Array>
          </mxGeometry>
        </mxCell>
        <mxCell id="1cdvJiRdMnJijtPopo0H-82" value="" style="endArrow=classic;html=1;rounded=0;entryX=0;entryY=0.75;entryDx=0;entryDy=0;exitX=1;exitY=0.5;exitDx=0;exitDy=0;" parent="1" source="1cdvJiRdMnJijtPopo0H-39" target="1cdvJiRdMnJijtPopo0H-45" edge="1">
          <mxGeometry width="50" height="50" relative="1" as="geometry">
            <mxPoint x="490" y="290" as="sourcePoint" />
            <mxPoint x="540" y="240" as="targetPoint" />
          </mxGeometry>
        </mxCell>
        <mxCell id="1cdvJiRdMnJijtPopo0H-83" value="" style="endArrow=classic;html=1;rounded=0;entryX=0;entryY=0.5;entryDx=0;entryDy=0;exitX=1;exitY=0.5;exitDx=0;exitDy=0;" parent="1" source="1cdvJiRdMnJijtPopo0H-50" target="1cdvJiRdMnJijtPopo0H-59" edge="1">
          <mxGeometry width="50" height="50" relative="1" as="geometry">
            <mxPoint x="770" y="390" as="sourcePoint" />
            <mxPoint x="820" y="340" as="targetPoint" />
            <Array as="points">
              <mxPoint x="850" y="210" />
              <mxPoint x="850" y="105" />
            </Array>
          </mxGeometry>
        </mxCell>
        <mxCell id="1cdvJiRdMnJijtPopo0H-84" value="" style="endArrow=classic;html=1;rounded=0;entryX=0;entryY=0.5;entryDx=0;entryDy=0;exitX=1;exitY=0.5;exitDx=0;exitDy=0;" parent="1" source="1cdvJiRdMnJijtPopo0H-50" target="1cdvJiRdMnJijtPopo0H-64" edge="1">
          <mxGeometry width="50" height="50" relative="1" as="geometry">
            <mxPoint x="810" y="470" as="sourcePoint" />
            <mxPoint x="860" y="420" as="targetPoint" />
            <Array as="points">
              <mxPoint x="850" y="210" />
              <mxPoint x="850" y="250" />
              <mxPoint x="850" y="315" />
            </Array>
          </mxGeometry>
        </mxCell>
        <mxCell id="1cdvJiRdMnJijtPopo0H-85" value="" style="endArrow=none;html=1;rounded=0;exitX=1;exitY=0.5;exitDx=0;exitDy=0;" parent="1" source="1cdvJiRdMnJijtPopo0H-64" edge="1">
          <mxGeometry width="50" height="50" relative="1" as="geometry">
            <mxPoint x="1080" y="350" as="sourcePoint" />
            <mxPoint x="1090" y="210" as="targetPoint" />
            <Array as="points">
              <mxPoint x="1090" y="315" />
            </Array>
          </mxGeometry>
        </mxCell>
        <mxCell id="1cdvJiRdMnJijtPopo0H-86" value="" style="endArrow=none;html=1;rounded=0;entryX=1;entryY=0.5;entryDx=0;entryDy=0;" parent="1" target="1cdvJiRdMnJijtPopo0H-59" edge="1">
          <mxGeometry width="50" height="50" relative="1" as="geometry">
            <mxPoint x="1090" y="210" as="sourcePoint" />
            <mxPoint x="1110" y="120" as="targetPoint" />
            <Array as="points">
              <mxPoint x="1090" y="105" />
            </Array>
          </mxGeometry>
        </mxCell>
        <mxCell id="1cdvJiRdMnJijtPopo0H-87" value="" style="endArrow=classic;html=1;rounded=0;exitX=1;exitY=0.5;exitDx=0;exitDy=0;entryX=0;entryY=0.5;entryDx=0;entryDy=0;" parent="1" source="1cdvJiRdMnJijtPopo0H-67" edge="1" target="1cdvJiRdMnJijtPopo0H-74">
          <mxGeometry width="50" height="50" relative="1" as="geometry">
            <mxPoint x="1100" y="330" as="sourcePoint" />
            <mxPoint x="1214" y="210" as="targetPoint" />
          </mxGeometry>
        </mxCell>
        <mxCell id="1cdvJiRdMnJijtPopo0H-92" value="&lt;font style=&quot;font-size: 11px;&quot;&gt;Получение данных, пришедших от пользователя&lt;/font&gt;" style="text;html=1;align=center;verticalAlign=middle;whiteSpace=wrap;rounded=0;" parent="1" vertex="1">
          <mxGeometry x="100" y="495" width="106" height="30" as="geometry" />
        </mxCell>
        <mxCell id="1cdvJiRdMnJijtPopo0H-94" value="" style="endArrow=classic;html=1;rounded=0;entryX=0;entryY=0.5;entryDx=0;entryDy=0;" parent="1" target="1cdvJiRdMnJijtPopo0H-16" edge="1">
          <mxGeometry width="50" height="50" relative="1" as="geometry">
            <mxPoint x="62" y="515" as="sourcePoint" />
            <mxPoint x="-31" y="553" as="targetPoint" />
          </mxGeometry>
        </mxCell>
        <mxCell id="1cdvJiRdMnJijtPopo0H-101" value="" style="rounded=0;whiteSpace=wrap;html=1;strokeColor=default;" parent="1" vertex="1">
          <mxGeometry x="287" y="485" width="120" height="60" as="geometry" />
        </mxCell>
        <mxCell id="1cdvJiRdMnJijtPopo0H-102" value="" style="rounded=0;whiteSpace=wrap;html=1;" parent="1" vertex="1">
          <mxGeometry x="287" y="535" width="120" height="10" as="geometry" />
        </mxCell>
        <mxCell id="1cdvJiRdMnJijtPopo0H-103" value="" style="endArrow=none;html=1;rounded=0;entryX=0.5;entryY=0;entryDx=0;entryDy=0;exitX=0.5;exitY=1;exitDx=0;exitDy=0;" parent="1" source="1cdvJiRdMnJijtPopo0H-102" target="1cdvJiRdMnJijtPopo0H-102" edge="1">
          <mxGeometry width="50" height="50" relative="1" as="geometry">
            <mxPoint x="207" y="635" as="sourcePoint" />
            <mxPoint x="257" y="585" as="targetPoint" />
          </mxGeometry>
        </mxCell>
        <mxCell id="1cdvJiRdMnJijtPopo0H-104" value="" style="endArrow=classic;html=1;rounded=0;entryX=0;entryY=0.5;entryDx=0;entryDy=0;exitX=1;exitY=0.5;exitDx=0;exitDy=0;" parent="1" source="1cdvJiRdMnJijtPopo0H-16" target="1cdvJiRdMnJijtPopo0H-101" edge="1">
          <mxGeometry width="50" height="50" relative="1" as="geometry">
            <mxPoint x="256" y="515" as="sourcePoint" />
            <mxPoint x="163" y="553" as="targetPoint" />
          </mxGeometry>
        </mxCell>
        <mxCell id="1cdvJiRdMnJijtPopo0H-107" value="A0.2.2" style="text;html=1;align=center;verticalAlign=middle;whiteSpace=wrap;rounded=0;fontSize=9;" parent="1" vertex="1">
          <mxGeometry x="292" y="530" width="50" height="20" as="geometry" />
        </mxCell>
        <mxCell id="1cdvJiRdMnJijtPopo0H-108" value="&lt;font style=&quot;font-size: 11px;&quot;&gt;Проверка достоверности чека о сдаче вторсырья&lt;/font&gt;" style="text;html=1;align=center;verticalAlign=middle;whiteSpace=wrap;rounded=0;" parent="1" vertex="1">
          <mxGeometry x="287" y="495" width="121" height="30" as="geometry" />
        </mxCell>
        <mxCell id="1cdvJiRdMnJijtPopo0H-110" value="" style="rounded=0;whiteSpace=wrap;html=1;" parent="1" vertex="1">
          <mxGeometry x="453" y="495" width="60" height="30" as="geometry" />
        </mxCell>
        <mxCell id="1cdvJiRdMnJijtPopo0H-111" value="" style="endArrow=none;html=1;rounded=0;entryX=0.5;entryY=0;entryDx=0;entryDy=0;exitX=0.5;exitY=1;exitDx=0;exitDy=0;" parent="1" source="1cdvJiRdMnJijtPopo0H-110" target="1cdvJiRdMnJijtPopo0H-110" edge="1">
          <mxGeometry width="50" height="50" relative="1" as="geometry">
            <mxPoint x="493" y="550" as="sourcePoint" />
            <mxPoint x="543" y="500" as="targetPoint" />
          </mxGeometry>
        </mxCell>
        <mxCell id="1cdvJiRdMnJijtPopo0H-112" value="X" style="text;html=1;align=center;verticalAlign=middle;whiteSpace=wrap;rounded=0;" parent="1" vertex="1">
          <mxGeometry x="483" y="495" width="30" height="30" as="geometry" />
        </mxCell>
        <mxCell id="1cdvJiRdMnJijtPopo0H-113" value="" style="endArrow=classic;html=1;rounded=0;exitX=1;exitY=0.5;exitDx=0;exitDy=0;" parent="1" source="1cdvJiRdMnJijtPopo0H-108" edge="1">
          <mxGeometry width="50" height="50" relative="1" as="geometry">
            <mxPoint x="466" y="515" as="sourcePoint" />
            <mxPoint x="453" y="510" as="targetPoint" />
          </mxGeometry>
        </mxCell>
        <mxCell id="1cdvJiRdMnJijtPopo0H-114" value="" style="rounded=0;whiteSpace=wrap;html=1;strokeColor=default;" parent="1" vertex="1">
          <mxGeometry x="604" y="402.5" width="120" height="60" as="geometry" />
        </mxCell>
        <mxCell id="1cdvJiRdMnJijtPopo0H-115" value="" style="rounded=0;whiteSpace=wrap;html=1;" parent="1" vertex="1">
          <mxGeometry x="604" y="452.5" width="120" height="10" as="geometry" />
        </mxCell>
        <mxCell id="1cdvJiRdMnJijtPopo0H-116" value="" style="endArrow=none;html=1;rounded=0;entryX=0.5;entryY=0;entryDx=0;entryDy=0;exitX=0.5;exitY=1;exitDx=0;exitDy=0;" parent="1" source="1cdvJiRdMnJijtPopo0H-115" target="1cdvJiRdMnJijtPopo0H-115" edge="1">
          <mxGeometry width="50" height="50" relative="1" as="geometry">
            <mxPoint x="524" y="552.5" as="sourcePoint" />
            <mxPoint x="574" y="502.5" as="targetPoint" />
          </mxGeometry>
        </mxCell>
        <mxCell id="1cdvJiRdMnJijtPopo0H-118" value="" style="rounded=0;whiteSpace=wrap;html=1;strokeColor=default;" parent="1" vertex="1">
          <mxGeometry x="604" y="553" width="120" height="60" as="geometry" />
        </mxCell>
        <mxCell id="1cdvJiRdMnJijtPopo0H-119" value="" style="rounded=0;whiteSpace=wrap;html=1;" parent="1" vertex="1">
          <mxGeometry x="604" y="603" width="120" height="10" as="geometry" />
        </mxCell>
        <mxCell id="1cdvJiRdMnJijtPopo0H-120" value="" style="endArrow=none;html=1;rounded=0;entryX=0.5;entryY=0;entryDx=0;entryDy=0;exitX=0.5;exitY=1;exitDx=0;exitDy=0;" parent="1" source="1cdvJiRdMnJijtPopo0H-119" target="1cdvJiRdMnJijtPopo0H-119" edge="1">
          <mxGeometry width="50" height="50" relative="1" as="geometry">
            <mxPoint x="524" y="703" as="sourcePoint" />
            <mxPoint x="574" y="653" as="targetPoint" />
          </mxGeometry>
        </mxCell>
        <mxCell id="1cdvJiRdMnJijtPopo0H-124" value="A0.2.3" style="text;html=1;align=center;verticalAlign=middle;whiteSpace=wrap;rounded=0;fontSize=9;" parent="1" vertex="1">
          <mxGeometry x="604" y="447.5" width="50" height="20" as="geometry" />
        </mxCell>
        <mxCell id="1cdvJiRdMnJijtPopo0H-125" value="A0.2.4" style="text;html=1;align=center;verticalAlign=middle;whiteSpace=wrap;rounded=0;fontSize=9;" parent="1" vertex="1">
          <mxGeometry x="606" y="598" width="50" height="20" as="geometry" />
        </mxCell>
        <mxCell id="1cdvJiRdMnJijtPopo0H-126" value="&lt;font style=&quot;font-size: 11px;&quot;&gt;Отказ в подтверждении сдачи вторсырья&lt;/font&gt;" style="text;html=1;align=center;verticalAlign=middle;whiteSpace=wrap;rounded=0;" parent="1" vertex="1">
          <mxGeometry x="615.5" y="562" width="97" height="30" as="geometry" />
        </mxCell>
        <mxCell id="1cdvJiRdMnJijtPopo0H-127" value="&lt;font style=&quot;font-size: 11px;&quot;&gt;Подтверждение сдачи вторсырья&lt;/font&gt;" style="text;html=1;align=center;verticalAlign=middle;whiteSpace=wrap;rounded=0;" parent="1" vertex="1">
          <mxGeometry x="615.5" y="410.5" width="97" height="30" as="geometry" />
        </mxCell>
        <mxCell id="1cdvJiRdMnJijtPopo0H-132" value="" style="rounded=0;whiteSpace=wrap;html=1;" parent="1" vertex="1">
          <mxGeometry x="854" y="500" width="60" height="30" as="geometry" />
        </mxCell>
        <mxCell id="1cdvJiRdMnJijtPopo0H-133" value="" style="endArrow=none;html=1;rounded=0;entryX=0.5;entryY=0;entryDx=0;entryDy=0;exitX=0.5;exitY=1;exitDx=0;exitDy=0;" parent="1" source="1cdvJiRdMnJijtPopo0H-132" target="1cdvJiRdMnJijtPopo0H-132" edge="1">
          <mxGeometry width="50" height="50" relative="1" as="geometry">
            <mxPoint x="894" y="550" as="sourcePoint" />
            <mxPoint x="944" y="500" as="targetPoint" />
          </mxGeometry>
        </mxCell>
        <mxCell id="1cdvJiRdMnJijtPopo0H-134" value="X" style="text;html=1;align=center;verticalAlign=middle;whiteSpace=wrap;rounded=0;" parent="1" vertex="1">
          <mxGeometry x="884" y="500" width="30" height="30" as="geometry" />
        </mxCell>
        <mxCell id="1cdvJiRdMnJijtPopo0H-135" value="" style="endArrow=classic;html=1;rounded=0;entryX=0;entryY=0.5;entryDx=0;entryDy=0;" parent="1" edge="1">
          <mxGeometry width="50" height="50" relative="1" as="geometry">
            <mxPoint x="824" y="514" as="sourcePoint" />
            <mxPoint x="854" y="514" as="targetPoint" />
          </mxGeometry>
        </mxCell>
        <mxCell id="1cdvJiRdMnJijtPopo0H-136" value="" style="rounded=0;whiteSpace=wrap;html=1;strokeColor=default;" parent="1" vertex="1">
          <mxGeometry x="945" y="485" width="120" height="60" as="geometry" />
        </mxCell>
        <mxCell id="1cdvJiRdMnJijtPopo0H-137" value="" style="rounded=0;whiteSpace=wrap;html=1;" parent="1" vertex="1">
          <mxGeometry x="945" y="535" width="120" height="10" as="geometry" />
        </mxCell>
        <mxCell id="1cdvJiRdMnJijtPopo0H-138" value="" style="endArrow=none;html=1;rounded=0;entryX=0.5;entryY=0;entryDx=0;entryDy=0;exitX=0.5;exitY=1;exitDx=0;exitDy=0;" parent="1" source="1cdvJiRdMnJijtPopo0H-137" target="1cdvJiRdMnJijtPopo0H-137" edge="1">
          <mxGeometry width="50" height="50" relative="1" as="geometry">
            <mxPoint x="865" y="635" as="sourcePoint" />
            <mxPoint x="915" y="585" as="targetPoint" />
          </mxGeometry>
        </mxCell>
        <mxCell id="1cdvJiRdMnJijtPopo0H-139" value="" style="endArrow=classic;html=1;rounded=0;entryX=0;entryY=0.5;entryDx=0;entryDy=0;" parent="1" target="1cdvJiRdMnJijtPopo0H-136" edge="1">
          <mxGeometry width="50" height="50" relative="1" as="geometry">
            <mxPoint x="914" y="515" as="sourcePoint" />
            <mxPoint x="821" y="553" as="targetPoint" />
          </mxGeometry>
        </mxCell>
        <mxCell id="1cdvJiRdMnJijtPopo0H-140" value="A0.2.5" style="text;html=1;align=center;verticalAlign=middle;whiteSpace=wrap;rounded=0;fontSize=9;" parent="1" vertex="1">
          <mxGeometry x="948" y="530" width="50" height="20" as="geometry" />
        </mxCell>
        <mxCell id="1cdvJiRdMnJijtPopo0H-141" value="&lt;font style=&quot;font-size: 11px;&quot;&gt;Завершение процесса подтверждения введенных данных&lt;/font&gt;" style="text;html=1;align=center;verticalAlign=middle;whiteSpace=wrap;rounded=0;" parent="1" vertex="1">
          <mxGeometry x="945" y="497" width="120" height="30" as="geometry" />
        </mxCell>
        <mxCell id="1cdvJiRdMnJijtPopo0H-144" value="&lt;font style=&quot;font-size: 11px;&quot;&gt;Чек достоверен&lt;/font&gt;" style="text;html=1;align=center;verticalAlign=middle;whiteSpace=wrap;rounded=0;" parent="1" vertex="1">
          <mxGeometry x="458.5" y="420" width="97" height="30" as="geometry" />
        </mxCell>
        <mxCell id="1cdvJiRdMnJijtPopo0H-145" value="&lt;font style=&quot;font-size: 11px;&quot;&gt;Чек не достоверен&lt;/font&gt;" style="text;html=1;align=center;verticalAlign=middle;whiteSpace=wrap;rounded=0;" parent="1" vertex="1">
          <mxGeometry x="470" y="568" width="97" height="30" as="geometry" />
        </mxCell>
        <mxCell id="1cdvJiRdMnJijtPopo0H-146" value="" style="endArrow=classic;html=1;rounded=0;exitX=1;exitY=0.5;exitDx=0;exitDy=0;entryX=0;entryY=0.5;entryDx=0;entryDy=0;" parent="1" source="1cdvJiRdMnJijtPopo0H-112" target="1cdvJiRdMnJijtPopo0H-114" edge="1">
          <mxGeometry width="50" height="50" relative="1" as="geometry">
            <mxPoint x="598" y="550" as="sourcePoint" />
            <mxPoint x="648" y="500" as="targetPoint" />
            <Array as="points">
              <mxPoint x="556" y="510" />
              <mxPoint x="556" y="433" />
            </Array>
          </mxGeometry>
        </mxCell>
        <mxCell id="1cdvJiRdMnJijtPopo0H-147" value="" style="endArrow=classic;html=1;rounded=0;entryX=0;entryY=0.5;entryDx=0;entryDy=0;exitX=1;exitY=0.5;exitDx=0;exitDy=0;" parent="1" source="1cdvJiRdMnJijtPopo0H-112" target="1cdvJiRdMnJijtPopo0H-118" edge="1">
          <mxGeometry width="50" height="50" relative="1" as="geometry">
            <mxPoint x="511" y="657" as="sourcePoint" />
            <mxPoint x="561" y="607" as="targetPoint" />
            <Array as="points">
              <mxPoint x="556" y="510" />
              <mxPoint x="556" y="583" />
            </Array>
          </mxGeometry>
        </mxCell>
        <mxCell id="1cdvJiRdMnJijtPopo0H-149" value="" style="endArrow=none;html=1;rounded=0;entryX=1;entryY=0.5;entryDx=0;entryDy=0;" parent="1" target="1cdvJiRdMnJijtPopo0H-114" edge="1">
          <mxGeometry width="50" height="50" relative="1" as="geometry">
            <mxPoint x="824" y="514" as="sourcePoint" />
            <mxPoint x="932" y="617" as="targetPoint" />
            <Array as="points">
              <mxPoint x="771" y="514" />
              <mxPoint x="771" y="433" />
            </Array>
          </mxGeometry>
        </mxCell>
        <mxCell id="1cdvJiRdMnJijtPopo0H-150" value="" style="endArrow=none;html=1;rounded=0;exitX=1;exitY=0.5;exitDx=0;exitDy=0;" parent="1" source="1cdvJiRdMnJijtPopo0H-118" edge="1">
          <mxGeometry width="50" height="50" relative="1" as="geometry">
            <mxPoint x="817" y="639" as="sourcePoint" />
            <mxPoint x="771" y="514" as="targetPoint" />
            <Array as="points">
              <mxPoint x="771" y="583" />
            </Array>
          </mxGeometry>
        </mxCell>
        <mxCell id="1cdvJiRdMnJijtPopo0H-151" value="&lt;font style=&quot;font-size: 11px;&quot;&gt;J2&lt;/font&gt;" style="text;html=1;align=center;verticalAlign=middle;whiteSpace=wrap;rounded=0;" parent="1" vertex="1">
          <mxGeometry x="854" y="531" width="60" height="30" as="geometry" />
        </mxCell>
        <mxCell id="1cdvJiRdMnJijtPopo0H-152" value="&lt;font style=&quot;font-size: 11px;&quot;&gt;J1&lt;/font&gt;" style="text;html=1;align=center;verticalAlign=middle;whiteSpace=wrap;rounded=0;" parent="1" vertex="1">
          <mxGeometry x="453" y="523" width="60" height="30" as="geometry" />
        </mxCell>
        <mxCell id="1cdvJiRdMnJijtPopo0H-153" value="" style="endArrow=classic;html=1;rounded=0;exitX=1;exitY=0.5;exitDx=0;exitDy=0;" parent="1" source="1cdvJiRdMnJijtPopo0H-141" edge="1">
          <mxGeometry width="50" height="50" relative="1" as="geometry">
            <mxPoint x="1179" y="589" as="sourcePoint" />
            <mxPoint x="1101" y="512" as="targetPoint" />
          </mxGeometry>
        </mxCell>
        <mxCell id="-PbL5kqOrsM6J9vpuoiR-1" value="" style="endArrow=classic;html=1;rounded=0;exitX=1;exitY=0.5;exitDx=0;exitDy=0;" edge="1" parent="1" source="1cdvJiRdMnJijtPopo0H-74">
          <mxGeometry width="50" height="50" relative="1" as="geometry">
            <mxPoint x="1431" y="281" as="sourcePoint" />
            <mxPoint x="1388" y="210" as="targetPoint" />
          </mxGeometry>
        </mxCell>
      </root>
    </mxGraphModel>
  </diagram>
</mxfile>
